<?xml version="1.0" encoding="UTF-8"?>
<!DOCTYPE svg PUBLIC "-//W3C//DTD SVG 1.1//EN" "http://www.w3.org/Graphics/SVG/1.1/DTD/svg11.dtd">
<!-- Creator: CorelDRAW -->
<svg xmlns="http://www.w3.org/2000/svg" xml:space="preserve" width="21.7778mm" height="15.1714mm" version="1.1" style="shape-rendering:geometricPrecision; text-rendering:geometricPrecision; image-rendering:optimizeQuality; fill-rule:evenodd; clip-rule:evenodd"
viewBox="0 0 15937.65 11102.89"
 xmlns:xlink="http://www.w3.org/1999/xlink"
 xmlns:xodm="http://www.corel.com/coreldraw/odm/2003">
 <defs>
  <style type="text/css">
   <![CDATA[
    .fil0 {fill:black}
   ]]>
  </style>
 </defs>
 <g id="Layer_x0020_1">
  <metadata id="CorelCorpID_0Corel-Layer"/>
  <path class="fil0" d="M7917.08 9623.64l7280.9 0c406.82,0 739.66,332.84 739.66,739.66 0,406.82 -332.91,739.59 -739.66,739.59l-7280.9 0c-406.75,0 -739.66,-332.76 -739.66,-739.59 0,-406.82 332.84,-739.66 739.66,-739.66zm-7177.42 -4865.65l14458.33 0c406.82,0 739.66,332.84 739.66,739.66 0,406.82 -332.91,739.59 -739.66,739.59l-14458.33 0c-406.75,0 -739.66,-332.76 -739.66,-739.59 0,-406.82 332.84,-739.66 739.66,-739.66zm3951.59 -4757.99l10506.74 0c406.82,0 739.66,332.76 739.66,739.59 0,406.82 -332.84,739.66 -739.66,739.66l-10506.74 0c-406.75,0 -739.66,-332.84 -739.66,-739.66 0,-406.82 332.84,-739.59 739.66,-739.59z"/>
 </g>
</svg>
